<svg width="67" height="67" viewBox="0 0 67 67" fill="none" xmlns="http://www.w3.org/2000/svg">
<path d="M33.5 8.375C8.375 8.375 0 33.5 0 33.5C0 33.5 8.375 58.625 33.5 58.625C58.625 58.625 67 33.5 67 33.5C67 33.5 58.625 8.375 33.5 8.375ZM33.5 50.25C18.9233 50.25 11.6706 38.8265 9.0785 33.5C10.3892 30.8116 12.9059 26.5488 16.9636 22.9936C16.8756 23.7013 16.75 24.3964 16.75 25.125C16.75 34.3752 24.2498 41.875 33.5 41.875C42.7502 41.875 50.25 34.3752 50.25 25.125C50.25 24.3922 50.1244 23.6929 50.0364 22.9894C54.0899 26.5404 56.6108 30.8033 57.9215 33.5C55.3336 38.8056 48.0683 50.25 33.5 50.25Z" fill="#00D6F6"/>
</svg>
